<?xml version="1.0" encoding="UTF-8"?><svg xmlns="http://www.w3.org/2000/svg" viewBox="0 0 649 70"><defs><style>.f{fill:#fff;}</style></defs><g id="a"/><g id="b"/><g id="c"/><g id="d"><g><path class="f" d="M247.97,24.99c-11.45,0-19.74,8.49-19.74,18.62v.13c0,10.13,8.22,18.48,19.6,18.48s19.73-8.48,19.73-18.61v-.13c0-10.13-8.22-18.48-19.6-18.48Zm-4.92,30.75l4.68-10.53h-8.19l11.69-14.04-2.34,9.36h8.19l-14.04,15.2Z"/><path class="f" d="M.3,61.25L20.37,15.77h12.67l20.14,45.47h-13.38L24.08,22.07h5.07L13.42,61.25H.3Zm10.98-8.9l3.31-9.42h22.22l3.31,9.42H11.28Z"/><path class="f" d="M52.21,36.56v-9.23h25.53v9.23h-25.53Zm19.42,25.27c-4.5,0-8.01-1.11-10.52-3.35-2.51-2.23-3.77-5.6-3.77-10.1V18.11h12.34v30.08c0,1.34,.33,2.36,1.01,3.05,.67,.69,1.57,1.04,2.7,1.04,1.43,0,2.68-.37,3.77-1.1l3.12,8.58c-1.13,.74-2.44,1.27-3.93,1.59s-3.06,.49-4.71,.49Z"/><path class="f" d="M102.42,61.83c-4.2,0-7.85-.79-10.95-2.37-3.1-1.58-5.5-3.75-7.21-6.5-1.71-2.75-2.57-5.86-2.57-9.32s.83-6.7,2.5-9.45c1.67-2.75,3.96-4.9,6.89-6.46s6.25-2.34,9.97-2.34c3.46,0,6.62,.73,9.45,2.18,2.84,1.45,5.11,3.53,6.82,6.24,1.71,2.71,2.57,6.01,2.57,9.91,0,.43-.02,.93-.06,1.49-.04,.56-.09,1.08-.13,1.56h-27.87v-6.5h21.31l-4.68,1.82c.04-1.56-.25-2.93-.88-4.13-.63-1.19-1.48-2.11-2.57-2.76-1.08-.65-2.36-.97-3.83-.97s-2.84,.32-3.96,.97c-1.13,.65-1.98,1.57-2.57,2.76-.58,1.19-.88,2.59-.88,4.19v1.88c0,1.73,.36,3.23,1.07,4.48,.71,1.26,1.74,2.22,3.09,2.89,1.34,.67,2.94,1.01,4.81,1.01s3.27-.25,4.48-.75c1.21-.5,2.42-1.27,3.64-2.31l6.43,6.82c-1.65,1.82-3.7,3.22-6.17,4.19s-5.37,1.46-8.71,1.46Z"/><path class="f" d="M148.55,25.39c2.73,0,5.2,.56,7.41,1.69,2.21,1.13,3.95,2.84,5.23,5.13,1.28,2.3,1.92,5.26,1.92,8.9v20.14h-12.41v-18.12c0-2.51-.51-4.34-1.53-5.49-1.02-1.15-2.39-1.72-4.12-1.72-1.34,0-2.56,.29-3.64,.88-1.08,.58-1.93,1.48-2.53,2.7-.61,1.21-.91,2.82-.91,4.81v16.96h-12.34V25.97h11.82v10.07l-2.34-2.92c1.34-2.51,3.18-4.43,5.52-5.75,2.34-1.32,4.98-1.98,7.93-1.98Z"/><path class="f" d="M189.28,61.83c-3.94,0-7.43-.78-10.46-2.34-3.03-1.56-5.41-3.71-7.15-6.46-1.73-2.75-2.6-5.88-2.6-9.39s.87-6.69,2.6-9.42c1.73-2.73,4.11-4.88,7.15-6.46,3.03-1.58,6.52-2.37,10.46-2.37s7.43,.86,10.33,2.57c2.9,1.71,4.96,4.08,6.17,7.11l-9.55,4.94c-.82-1.65-1.84-2.85-3.05-3.61-1.21-.76-2.53-1.14-3.96-1.14s-2.72,.32-3.87,.97c-1.15,.65-2.07,1.58-2.76,2.79-.69,1.21-1.04,2.75-1.04,4.61s.35,3.29,1.04,4.55c.69,1.26,1.61,2.21,2.76,2.86,1.15,.65,2.44,.97,3.87,.97s2.75-.38,3.96-1.14c1.21-.76,2.23-1.96,3.05-3.61l9.55,4.87c-1.21,3.03-3.27,5.4-6.17,7.11-2.9,1.71-6.35,2.57-10.33,2.57Z"/><path class="f" d="M216.5,22.14c-2.3,0-4.12-.63-5.49-1.88-1.36-1.26-2.05-2.81-2.05-4.68s.68-3.41,2.05-4.65c1.36-1.23,3.19-1.85,5.49-1.85s4.07,.58,5.46,1.75c1.39,1.17,2.08,2.66,2.08,4.48,0,1.95-.68,3.57-2.05,4.87-1.36,1.3-3.19,1.95-5.49,1.95Zm-6.17,39.11V25.97h12.34V61.25h-12.34Z"/><path class="f" d="M245.08,20.51l8.64-9.81h12.41l-12.34,9.81h-8.71Z"/><path class="f" d="M296.21,24.09c2.73,0,5.2,.56,7.41,1.69,2.21,1.13,3.95,2.84,5.23,5.13,1.28,2.3,1.92,5.26,1.92,8.9v20.14h-12.41v-18.12c0-2.51-.51-4.34-1.53-5.49-1.02-1.15-2.39-1.72-4.12-1.72-1.34,0-2.56,.29-3.64,.88-1.08,.58-1.93,1.48-2.53,2.7-.61,1.21-.91,2.82-.91,4.81v16.96h-12.34V24.67h11.82v10.07l-2.34-2.92c1.34-2.51,3.18-4.43,5.52-5.75,2.34-1.32,4.98-1.98,7.93-1.98Z"/><path class="f" d="M349.15,60.53c-2.77,0-5.14-.48-7.11-1.43-1.97-.95-3.47-2.25-4.48-3.9-1.02-1.65-1.53-3.46-1.53-5.46,0-2.16,.55-4.05,1.66-5.65,1.1-1.6,2.81-2.83,5.13-3.67,2.32-.84,5.27-1.27,8.87-1.27h8.32v6.5h-6.63c-1.99,0-3.39,.3-4.19,.91-.8,.61-1.2,1.47-1.2,2.6,0,1.04,.41,1.9,1.23,2.57,.82,.67,1.95,1.01,3.38,1.01s2.63-.33,3.74-1.01c1.1-.67,1.89-1.7,2.37-3.09l1.69,4.55c-.65,2.43-1.92,4.26-3.8,5.49-1.88,1.23-4.36,1.85-7.44,1.85Zm10.39-.58v-6.56l-.84-1.62v-12.08c0-1.95-.6-3.45-1.79-4.51-1.19-1.06-3.09-1.59-5.68-1.59-1.69,0-3.41,.28-5.16,.84-1.75,.56-3.24,1.28-4.45,2.14l-4.09-8.32c1.99-1.3,4.39-2.32,7.18-3.05,2.79-.74,5.58-1.1,8.35-1.1,5.72,0,10.14,1.32,13.29,3.96,3.14,2.64,4.71,6.76,4.71,12.34v19.55h-11.5Z"/><path class="f" d="M378.84,59.95V11.74h12.34V59.95h-12.34Z"/><path class="f" d="M436.07,60.53c-3.94,0-7.43-.78-10.46-2.34-3.03-1.56-5.41-3.71-7.15-6.46-1.73-2.75-2.6-5.88-2.6-9.39s.87-6.69,2.6-9.42c1.73-2.73,4.11-4.88,7.15-6.46,3.03-1.58,6.52-2.37,10.46-2.37s7.43,.86,10.33,2.57c2.9,1.71,4.96,4.08,6.17,7.11l-9.55,4.94c-.82-1.65-1.84-2.85-3.05-3.61-1.21-.76-2.53-1.14-3.96-1.14s-2.72,.32-3.87,.97c-1.15,.65-2.07,1.58-2.76,2.79-.69,1.21-1.04,2.75-1.04,4.61s.35,3.29,1.04,4.55c.69,1.26,1.61,2.21,2.76,2.86,1.15,.65,2.44,.97,3.87,.97s2.75-.38,3.96-1.14c1.21-.76,2.23-1.96,3.05-3.61l9.55,4.87c-1.21,3.03-3.27,5.4-6.17,7.11-2.9,1.71-6.35,2.57-10.33,2.57Z"/><path class="f" d="M457.12,59.95V11.74h12.34V59.95h-12.34Z"/><path class="f" d="M483.63,20.84c-2.3,0-4.12-.63-5.49-1.88-1.36-1.26-2.05-2.81-2.05-4.68s.68-3.41,2.05-4.65c1.36-1.23,3.19-1.85,5.49-1.85s4.07,.58,5.46,1.75c1.39,1.17,2.08,2.66,2.08,4.48,0,1.95-.68,3.57-2.05,4.87-1.36,1.3-3.19,1.95-5.49,1.95Zm-6.17,39.11V24.67h12.34V59.95h-12.34Z"/><path class="f" d="M516.3,60.53c-4.2,0-7.85-.79-10.95-2.37-3.1-1.58-5.5-3.75-7.21-6.5-1.71-2.75-2.57-5.86-2.57-9.32s.83-6.7,2.5-9.45c1.67-2.75,3.96-4.9,6.89-6.46s6.25-2.34,9.97-2.34c3.46,0,6.62,.73,9.45,2.18,2.84,1.45,5.11,3.53,6.82,6.24,1.71,2.71,2.57,6.01,2.57,9.91,0,.43-.02,.93-.06,1.49-.04,.56-.09,1.08-.13,1.56h-27.87v-6.5h21.31l-4.68,1.82c.04-1.56-.25-2.93-.88-4.13-.63-1.19-1.48-2.11-2.57-2.76-1.08-.65-2.36-.97-3.83-.97s-2.84,.32-3.96,.97c-1.13,.65-1.98,1.57-2.57,2.76-.58,1.19-.88,2.59-.88,4.19v1.88c0,1.73,.36,3.23,1.07,4.48,.71,1.26,1.74,2.22,3.09,2.89,1.34,.67,2.94,1.01,4.81,1.01s3.27-.25,4.48-.75c1.21-.5,2.42-1.27,3.64-2.31l6.43,6.82c-1.65,1.82-3.7,3.22-6.17,4.19s-5.37,1.46-8.71,1.46Z"/><path class="f" d="M562.43,24.09c2.73,0,5.2,.56,7.41,1.69,2.21,1.13,3.95,2.84,5.23,5.13,1.28,2.3,1.92,5.26,1.92,8.9v20.14h-12.41v-18.12c0-2.51-.51-4.34-1.53-5.49-1.02-1.15-2.39-1.72-4.12-1.72-1.34,0-2.56,.29-3.64,.88-1.08,.58-1.93,1.48-2.53,2.7-.61,1.21-.91,2.82-.91,4.81v16.96h-12.34V24.67h11.82v10.07l-2.34-2.92c1.34-2.51,3.18-4.43,5.52-5.75,2.34-1.32,4.98-1.98,7.93-1.98Z"/><path class="f" d="M581.01,35.26v-9.23h25.53v9.23h-25.53Zm19.42,25.27c-4.5,0-8.01-1.11-10.52-3.35-2.51-2.23-3.77-5.6-3.77-10.1V16.81h12.34v30.08c0,1.34,.33,2.36,1.01,3.05,.67,.69,1.57,1.04,2.7,1.04,1.43,0,2.68-.37,3.77-1.1l3.12,8.58c-1.13,.74-2.44,1.27-3.93,1.59s-3.06,.49-4.71,.49Z"/><path class="f" d="M631.22,60.53c-4.2,0-7.85-.79-10.95-2.37-3.1-1.58-5.5-3.75-7.21-6.5-1.71-2.75-2.57-5.86-2.57-9.32s.83-6.7,2.5-9.45c1.67-2.75,3.96-4.9,6.89-6.46s6.25-2.34,9.97-2.34c3.46,0,6.62,.73,9.45,2.18,2.84,1.45,5.11,3.53,6.82,6.24,1.71,2.71,2.57,6.01,2.57,9.91,0,.43-.02,.93-.06,1.49-.04,.56-.09,1.08-.13,1.56h-27.87v-6.5h21.31l-4.68,1.82c.04-1.56-.25-2.93-.88-4.13-.63-1.19-1.48-2.11-2.57-2.76-1.08-.65-2.36-.97-3.83-.97s-2.84,.32-3.96,.97c-1.13,.65-1.98,1.57-2.57,2.76-.58,1.19-.88,2.59-.88,4.19v1.88c0,1.73,.36,3.23,1.07,4.48,.71,1.26,1.74,2.22,3.09,2.89,1.34,.67,2.94,1.01,4.81,1.01s3.27-.25,4.48-.75c1.21-.5,2.42-1.27,3.64-2.31l6.43,6.82c-1.65,1.82-3.7,3.22-6.17,4.19s-5.37,1.46-8.71,1.46Z"/></g></g><g id="e"/></svg>