<?xml version="1.0" encoding="UTF-8"?><svg xmlns="http://www.w3.org/2000/svg" xmlns:xlink="http://www.w3.org/1999/xlink" viewBox="0 0 4594 2218"><defs><style>.j{fill:#fff;}.k{fill:url(#h);mix-blend-mode:soft-light;opacity:.16;}.l{isolation:isolate;}.m{fill:url(#f);}.n{fill:none;}</style><linearGradient id="f" x1="0" y1="1108.75" x2="4594" y2="1108.75" gradientTransform="matrix(1, 0, 0, 1, 0, 0)" gradientUnits="userSpaceOnUse"><stop offset="0" stop-color="#002887"/><stop offset=".04" stop-color="#002898"/><stop offset=".13" stop-color="#0129b3"/><stop offset=".22" stop-color="#022ac8"/><stop offset=".33" stop-color="#022bd7"/><stop offset=".45" stop-color="#022be0"/><stop offset=".64" stop-color="#032ce3"/></linearGradient><pattern id="h" x="0" y="0" width="297" height="310.82" patternTransform="translate(-3113 -7555.42)" patternUnits="userSpaceOnUse" viewBox="0 0 297 310.82"><g><rect class="n" width="297" height="310.82"/><g><g><path class="j" d="M263.01,304.59c-1.46-5.45-4.73-9.31-10.06-11.29-3.78-1.41-7.69-1.56-11.63-.92-4.93,.81-9.09,3.13-12.61,6.63-2.83,2.82-4.87,6.15-6.36,9.84-1.72,4.27-2.48,8.72-2.56,13.3-.04,2.19,.08,4.37,.62,6.51,1.52,6.02,5.18,10.06,11.13,11.94,2.23,.7,4.53,.98,6.86,.89,1.32-.05,2.65-.13,3.94-.35,4.8-.82,8.87-3.08,12.33-6.47,2.72-2.67,4.73-5.83,6.22-9.33,1.97-4.63,2.8-9.49,2.83-15.14,.03-1.47-.16-3.57-.7-5.61Zm-20.54,8.55h10.59l.04,.11c-6.18,6.62-12.36,13.25-18.55,19.87l-.06-.03,6.3-14.27-8.92,.1,15.55-18.68,.06,.03-5.01,12.87Z"/><path class="j" d="M267.48,293.14h.37c5.42,0,10.85,0,16.27,0,.26,0,.39,.07,.51,.31,1.8,3.68,3.6,7.35,5.41,11.02,.07,.15,.15,.29,.32,.52,.06-.1,.1-.22,.18-.31,3.23-3.77,6.46-7.54,9.69-11.31,.14-.16,.27-.23,.49-.23,5.79,0,11.58,0,17.37,0h.29c-7.21,7.95-14.37,15.86-21.55,23.77,4.23,7.83,8.46,15.65,12.71,23.52h-.34c-5.52,0-11.03,0-16.55,0-.26,0-.37-.09-.47-.31-1.87-3.88-3.75-7.76-5.62-11.63-.03-.06-.06-.12-.12-.23-.13,.14-.24,.26-.35,.39-3.24,3.83-6.47,7.66-9.7,11.5-.17,.21-.35,.29-.62,.28-6.08,0-12.17,0-18.25,0h-.4c.41-.45,.78-.86,1.15-1.27,5.67-6.22,11.35-12.45,17.02-18.67,1.3-1.43,2.6-2.86,3.91-4.28,.18-.19,.18-.33,.06-.55-2.61-4.96-5.21-9.93-7.81-14.9-1.3-2.47-2.59-4.95-3.89-7.43-.02-.04-.04-.09-.1-.2Z"/><path class="j" d="M222.85,292.06c-.18,.91-.35,1.78-.53,2.66-.99,4.95-1.98,9.9-2.97,14.85-1.05,5.23-2.09,10.46-3.14,15.69-.99,4.94-1.98,9.88-2.96,14.83-.05,.23-.12,.32-.37,.32-5.23,0-10.46,0-15.69,0-.09,0-.18,0-.31-.02l7.18-36.02h-8.29l2.49-12.3h24.59Z"/><path class="j" d="M198.81,275.69h2.23c-.17,.86-.34,1.7-.51,2.54-.31,1.55-.63,3.11-.91,4.66-.07,.37-.07,.78,0,1.15,.16,1.03,.78,1.62,1.86,1.81,.62,.11,1.23,.09,1.84-.08,1.2-.34,1.86-1.22,2.19-2.35,.31-1.07,.51-2.17,.74-3.26,.29-1.41,.57-2.83,.85-4.24,.03-.14,.04-.25,.23-.25,.65,0,1.3,0,2,0-.1,.5-.19,.97-.28,1.44-.41,2.01-.79,4.02-1.23,6.03-.28,1.27-.83,2.43-1.81,3.33-1.3,1.2-2.89,1.51-4.59,1.37-.59-.05-1.2-.17-1.74-.39-1.51-.61-2.26-1.79-2.35-3.4-.05-.95,.19-1.86,.37-2.77,.37-1.85,.74-3.7,1.11-5.58Z"/><path class="j" d="M262.95,279.62c-.39-.48-.87-.84-1.47-.99-1.67-.45-3.26-.24-4.65,.84-1.51,1.17-2.08,2.78-1.99,4.65,.05,1.04,.41,1.95,1.18,2.66,1.22,1.13,3.29,1.38,4.86,.62,.32-.15,.61-.35,.95-.55l-.14,.84h2.03c.6-3.04,1.21-6.07,1.82-9.15-.69,0-1.32,0-1.96,0-.08,0-.19,.13-.21,.21-.09,.34-.14,.69-.22,1.08-.08-.1-.14-.15-.18-.21Zm-1.94,.72c.98,.26,1.54,.99,1.57,2.1,.03,1.06-.29,2-1.08,2.75-.84,.8-2.28,1.05-3.32,.56-.88-.41-1.21-1.17-1.19-2.09,.03-1.43,.58-2.57,1.94-3.18,.38-.17,.82-.21,1.14-.29,.38,.06,.67,.07,.94,.14Z"/><path class="j" d="M283.02,278.63c-1.7-.45-3.31-.23-4.69,.89-1.61,1.3-2.14,3.06-1.88,5.07,.16,1.23,.8,2.21,1.93,2.75,1.62,.77,3.21,.66,4.72-.33,.08-.05,.15-.11,.29-.21l-.15,.9c.62,0,1.19,0,1.77,0,.2,0,.27-.06,.31-.26,.39-2.02,.8-4.04,1.2-6.06,.19-.93,.37-1.87,.56-2.84-.69,0-1.35,0-2.01,0-.06,0-.15,.12-.17,.2-.08,.35-.14,.7-.22,1.13-.45-.65-.98-1.07-1.66-1.24Zm-.45,1.72c.98,.26,1.53,.99,1.56,2.1,.03,1.06-.29,2-1.08,2.75-.84,.8-2.28,1.05-3.33,.55-.88-.41-1.21-1.17-1.19-2.09,.03-1.43,.58-2.57,1.95-3.17,.38-.17,.82-.21,1.14-.28,.38,.06,.67,.07,.94,.15Z"/><path class="j" d="M224.27,283.73c2.21,0,4.41,0,6.62,0,.21,0,.32-.04,.33-.27,0-.23,.06-.46,.08-.7,.09-1.77-.52-3.33-2.3-4-1.85-.69-3.66-.47-5.25,.75-1.5,1.15-2.05,2.76-1.94,4.61,.09,1.59,.89,2.74,2.38,3.31,1.76,.67,3.51,.5,5.18-.38,.25-.13,.46-.32,.7-.49l-.9-1.5c-.07,.06-.11,.09-.15,.12-.04,.03-.08,.06-.12,.09-1.19,.8-2.47,.95-3.81,.47-.81-.29-1.31-1.18-1.18-2.02h.35Zm1.19-3.23c.82-.45,1.69-.51,2.56-.2,.88,.31,1.38,1.11,1.28,2h-5.22c.23-.81,.67-1.42,1.38-1.8Z"/><path class="j" d="M241.93,283.73c2.2,0,4.39,0,6.59,0,.21,0,.35-.03,.35-.28,0-.55,.08-1.1,.03-1.64-.13-1.41-.84-2.47-2.16-3-1.72-.69-3.43-.55-4.99,.46-1.74,1.13-2.4,2.83-2.3,4.85,.08,1.59,.88,2.75,2.37,3.32,1.77,.67,3.53,.51,5.21-.38,.24-.13,.46-.32,.69-.49l-.88-1.48c-1.32,.86-2.17,1.06-3.46,.85-1.18-.19-1.91-1.05-1.83-2.21h.38Zm-.22-1.42c.08-.22,.14-.42,.24-.6,.69-1.37,2.43-1.98,3.84-1.36,.81,.36,1.28,1.15,1.15,1.96h-5.23Z"/><path class="j" d="M218.92,287.68h-2.16c.17-.87,.35-1.74,.51-2.6,.18-.97,.39-1.93,.53-2.91,.16-1.11-.45-1.81-1.56-1.88-1.69-.1-2.84,.74-3.23,2.42-.35,1.56-.65,3.14-.97,4.72-.04,.2-.11,.26-.31,.26-.62-.01-1.24,0-1.88,0,.25-1.27,.49-2.5,.73-3.73,.34-1.7,.69-3.41,1.01-5.11,.05-.26,.14-.33,.4-.32,.55,.02,1.1,0,1.69,0l-.16,.94c.1-.07,.17-.1,.23-.14,1.27-.93,2.69-1.11,4.18-.73,1.46,.38,2.29,1.63,2.06,3.23-.29,1.96-.71,3.89-1.08,5.86Z"/><path class="j" d="M239.09,278.58c-.11,.54-.22,1.02-.3,1.5-.03,.18-.11,.23-.28,.23-.73,0-1.46,0-2.24,0-.09,.45-.18,.89-.27,1.33-.2,1.04-.42,2.07-.61,3.11-.15,.86,.27,1.35,1.14,1.3,.37-.02,.74-.17,1.14-.26,.1,.41,.22,.88,.31,1.35,.01,.07-.06,.19-.12,.22-1.07,.52-2.18,.66-3.3,.22-.99-.39-1.53-1.35-1.36-2.44,.18-1.17,.44-2.33,.66-3.5,.08-.43,.17-.85,.26-1.32h-1.49c.11-.56,.21-1.09,.33-1.6,.01-.05,.15-.11,.24-.11,.32-.01,.65-.02,.98,0,.23,.01,.32-.07,.35-.3,.1-.6,.23-1.19,.35-1.79h2.13l-.41,2.08h2.47Z"/><path class="j" d="M271.29,287.66c.84-4.23,1.69-8.46,2.53-12.7h2.14c-.27,1.38-.54,2.75-.81,4.11-.54,2.73-1.09,5.46-1.64,8.18-.1,.51,.03,.44-.52,.44-.54,0-1.08,0-1.62,0-.02,0-.04-.01-.08-.03Z"/><path class="j" d="M292.78,287.69c.31-1.59,.62-3.13,.93-4.68,.28-1.4,.56-2.79,.83-4.19,.04-.22,.11-.31,.35-.3,.57,.02,1.13,0,1.74,0l-.21,1.14c.99-1.05,2.19-1.23,3.52-1.25-.1,.55-.22,1.07-.29,1.6-.04,.32-.14,.42-.49,.41-1.85-.09-2.96,.89-3.34,2.84-.27,1.4-.57,2.79-.84,4.18-.04,.19-.11,.25-.29,.24-.62-.01-1.24,0-1.9,0Z"/><path class="j" d="M207.89,272.39c-1.03,.74-2.05,1.49-3.08,2.23-.05,.04-.13,.06-.2,.06-.57,0-1.14,0-1.76,0,.07-.09,.12-.15,.17-.2,.74-.67,1.47-1.34,2.21-2,.08-.07,.21-.14,.31-.14,.77-.01,1.54,0,2.31,0l.02,.06Z"/></g><rect class="n" x="163.5" y="255.32" width="267" height="111" rx="12" ry="12"/></g><g><g><g><path class="j" d="M-29.52,293.14h.37c5.42,0,10.85,0,16.27,0,.26,0,.39,.07,.51,.31,1.8,3.68,3.6,7.35,5.41,11.02,.07,.15,.15,.29,.32,.52,.06-.1,.1-.22,.18-.31,3.23-3.77,6.46-7.54,9.69-11.31,.14-.16,.27-.23,.49-.23,5.79,0,11.58,0,17.37,0h.29c-7.21,7.95-14.37,15.86-21.55,23.77,4.23,7.83,8.46,15.65,12.71,23.52h-.34c-5.52,0-11.03,0-16.55,0-.26,0-.37-.09-.47-.31-1.87-3.88-3.75-7.76-5.62-11.63-.03-.06-.06-.12-.12-.23-.13,.14-.24,.26-.35,.39-3.24,3.83-6.47,7.66-9.7,11.5-.17,.21-.35,.29-.62,.28-6.08,0-12.17,0-18.25,0h-.4c.41-.45,.78-.86,1.15-1.27,5.67-6.22,11.35-12.45,17.02-18.67,1.3-1.43,2.6-2.86,3.91-4.28,.18-.19,.18-.33,.06-.55-2.61-4.96-5.21-9.93-7.81-14.9-1.3-2.47-2.59-4.95-3.89-7.43-.02-.04-.04-.09-.1-.2Z"/><path class="j" d="M20.27,278.64c-1.7-.47-3.3-.27-4.71,.83-1.61,1.26-2.14,2.99-1.93,4.96,.14,1.31,.79,2.35,1.99,2.92,1.57,.75,3.13,.63,4.61-.32,.1-.06,.19-.13,.35-.24l-.15,.89c.61,0,1.19,0,1.77,0,.2,0,.28-.05,.32-.26,.66-3.35,1.33-6.69,2-10.04,.16-.81,.32-1.62,.49-2.46-.67,0-1.31,0-1.95,0-.08,0-.2,.12-.22,.2-.12,.5-.21,1.01-.31,1.52-.21,1.02-.41,2.05-.63,3.16-.44-.62-.96-1.01-1.6-1.19Zm-.51,1.7c.96,.26,1.5,.94,1.56,2.04,.05,1.05-.22,2.03-1.02,2.77-.94,.87-2.06,1.07-3.25,.63-.83-.3-1.23-.97-1.28-1.84-.08-1.26,.28-2.35,1.33-3.14,.54-.4,1.16-.58,1.83-.59,.28,.04,.57,.06,.84,.13Z"/><path class="j" d="M5.44,283.73c2.18,0,4.35,0,6.53,0,.3,0,.43-.08,.43-.37,0-.52,.07-1.04,.02-1.55-.14-1.42-.85-2.49-2.19-3.01-1.71-.68-3.41-.54-4.96,.46-1.74,1.12-2.41,2.83-2.3,4.84,.08,1.59,.88,2.75,2.37,3.32,1.78,.68,3.55,.52,5.23-.4,.24-.13,.44-.31,.67-.47l-.88-1.47c-1.37,.86-2.18,1.06-3.46,.85-1.18-.19-1.91-1.04-1.83-2.21h.38Zm-.2-1.42c.23-.82,.68-1.43,1.4-1.82,.81-.43,1.67-.49,2.54-.19,.88,.3,1.37,1.09,1.29,2.01H5.23Z"/><path class="j" d="M-4.22,287.69c.31-1.59,.62-3.13,.93-4.68,.28-1.4,.56-2.79,.83-4.19,.04-.22,.11-.31,.35-.3,.57,.02,1.13,0,1.74,0l-.21,1.14c.99-1.05,2.19-1.23,3.52-1.25-.1,.55-.22,1.07-.29,1.6-.04,.32-.14,.42-.49,.41-1.85-.09-2.96,.89-3.34,2.84-.27,1.4-.57,2.79-.84,4.18-.04,.19-.11,.25-.29,.24-.62-.01-1.24,0-1.9,0Z"/></g><path class="j" d="M109.33,274.2c-3.31,8.5-6.62,16.99-9.99,25.65h21.12l.08,.21c-12.33,13.21-24.65,26.41-36.98,39.62l-.12-.07,12.56-28.44c-5.93,.07-11.77,.14-17.79,.21l30.99-37.24,.12,.06Z"/></g><rect class="n" x="-133.5" y="255.32" width="267" height="111" rx="12" ry="12"/></g><g><g><g><path class="j" d="M114.51,149.17c-1.46-5.45-4.73-9.31-10.06-11.29-3.78-1.41-7.69-1.56-11.63-.92-4.93,.81-9.09,3.13-12.61,6.63-2.83,2.82-4.87,6.15-6.36,9.84-1.72,4.27-2.48,8.72-2.56,13.3-.04,2.19,.08,4.37,.62,6.51,1.52,6.02,5.18,10.06,11.13,11.94,2.23,.7,4.53,.98,6.86,.89,1.32-.05,2.65-.13,3.94-.35,4.8-.82,8.87-3.08,12.33-6.47,2.72-2.67,4.73-5.83,6.22-9.33,1.97-4.63,2.8-9.49,2.83-15.14,.03-1.47-.16-3.57-.7-5.61Zm-20.54,8.55h10.59l.04,.11c-6.18,6.62-12.36,13.25-18.55,19.87l-.06-.03,6.3-14.27-8.92,.1,15.55-18.68,.06,.03-5.01,12.87Z"/><path class="j" d="M118.98,137.73h.37c5.42,0,10.85,0,16.27,0,.26,0,.39,.07,.51,.31,1.8,3.68,3.6,7.35,5.41,11.02,.07,.15,.15,.29,.32,.52,.06-.1,.1-.22,.18-.31,3.23-3.77,6.46-7.54,9.69-11.31,.14-.16,.27-.23,.49-.23,5.79,0,11.58,0,17.37,0h.29c-7.21,7.95-14.37,15.86-21.55,23.77,4.23,7.83,8.46,15.65,12.71,23.52h-.34c-5.52,0-11.03,0-16.55,0-.26,0-.37-.09-.47-.31-1.87-3.88-3.75-7.76-5.62-11.63-.03-.06-.06-.12-.12-.23-.13,.14-.24,.26-.35,.39-3.24,3.83-6.47,7.66-9.7,11.5-.17,.21-.35,.29-.62,.28-6.08,0-12.17,0-18.25,0h-.4c.41-.45,.78-.86,1.15-1.27,5.67-6.22,11.35-12.45,17.02-18.67,1.3-1.43,2.6-2.86,3.91-4.28,.18-.19,.18-.33,.06-.55-2.61-4.96-5.21-9.93-7.81-14.9-1.3-2.47-2.59-4.95-3.89-7.43-.02-.04-.04-.09-.1-.2Z"/><path class="j" d="M74.35,136.65c-.18,.91-.35,1.78-.53,2.66-.99,4.95-1.98,9.9-2.97,14.85-1.05,5.23-2.09,10.46-3.14,15.69-.99,4.94-1.98,9.88-2.96,14.83-.05,.23-.12,.32-.37,.32-5.23,0-10.46,0-15.69,0-.09,0-.18,0-.31-.02l7.18-36.02h-8.29l2.49-12.3h24.59Z"/><path class="j" d="M168.77,123.23c-1.7-.47-3.3-.27-4.71,.83-1.61,1.26-2.14,2.99-1.93,4.96,.14,1.31,.79,2.35,1.99,2.92,1.57,.75,3.13,.63,4.61-.32,.1-.06,.19-.13,.35-.24l-.15,.89c.61,0,1.19,0,1.77,0,.2,0,.28-.05,.32-.26,.66-3.35,1.33-6.69,2-10.04,.16-.81,.32-1.62,.49-2.46-.67,0-1.31,0-1.95,0-.08,0-.2,.12-.22,.2-.12,.5-.21,1.01-.31,1.52-.21,1.02-.41,2.05-.63,3.16-.44-.62-.96-1.01-1.6-1.19Zm-.51,1.7c.96,.26,1.5,.94,1.56,2.04,.05,1.05-.22,2.03-1.02,2.77-.94,.87-2.06,1.07-3.25,.63-.83-.3-1.23-.97-1.28-1.84-.08-1.26,.28-2.35,1.33-3.14,.54-.4,1.16-.58,1.83-.59,.28,.04,.57,.06,.84,.13Z"/><path class="j" d="M50.31,120.27h2.23c-.17,.86-.34,1.7-.51,2.54-.31,1.55-.63,3.11-.91,4.66-.07,.37-.07,.78,0,1.15,.16,1.03,.78,1.62,1.86,1.81,.62,.11,1.23,.09,1.84-.08,1.2-.34,1.86-1.22,2.19-2.35,.31-1.07,.51-2.17,.74-3.26,.29-1.41,.57-2.83,.85-4.24,.03-.14,.04-.25,.23-.25,.65,0,1.3,0,2,0-.1,.5-.19,.97-.28,1.44-.41,2.01-.79,4.02-1.23,6.03-.28,1.27-.83,2.43-1.81,3.33-1.3,1.2-2.89,1.51-4.59,1.37-.59-.05-1.2-.17-1.74-.39-1.51-.61-2.26-1.79-2.35-3.4-.05-.95,.19-1.86,.37-2.77,.37-1.85,.74-3.7,1.11-5.58Z"/><path class="j" d="M114.45,124.21c-.39-.48-.87-.84-1.47-.99-1.67-.45-3.26-.24-4.65,.84-1.51,1.17-2.08,2.78-1.99,4.65,.05,1.04,.41,1.95,1.18,2.66,1.22,1.13,3.29,1.38,4.86,.62,.32-.15,.61-.35,.95-.55l-.14,.84h2.03c.6-3.04,1.21-6.07,1.82-9.15-.69,0-1.32,0-1.96,0-.08,0-.19,.13-.21,.21-.09,.34-.14,.69-.22,1.08-.08-.1-.14-.15-.18-.21Zm-1.94,.72c.98,.26,1.54,.99,1.57,2.1,.03,1.06-.29,2-1.08,2.75-.84,.8-2.28,1.05-3.32,.56-.88-.41-1.21-1.17-1.19-2.09,.03-1.43,.58-2.57,1.94-3.18,.38-.17,.82-.21,1.14-.29,.38,.06,.67,.07,.94,.14Z"/><path class="j" d="M134.52,123.21c-1.7-.45-3.31-.23-4.69,.89-1.61,1.3-2.14,3.06-1.88,5.07,.16,1.23,.8,2.21,1.93,2.75,1.62,.77,3.21,.66,4.72-.33,.08-.05,.15-.11,.29-.21l-.15,.9c.62,0,1.19,0,1.77,0,.2,0,.27-.06,.31-.26,.39-2.02,.8-4.04,1.2-6.06,.19-.93,.37-1.87,.56-2.84-.69,0-1.35,0-2.01,0-.06,0-.15,.12-.17,.2-.08,.35-.14,.7-.22,1.13-.45-.65-.98-1.07-1.66-1.24Zm-.45,1.72c.98,.26,1.53,.99,1.56,2.1,.03,1.06-.29,2-1.08,2.75-.84,.8-2.28,1.05-3.33,.55-.88-.41-1.21-1.17-1.19-2.09,.03-1.43,.58-2.57,1.95-3.17,.38-.17,.82-.21,1.14-.28,.38,.06,.67,.07,.94,.15Z"/><path class="j" d="M75.77,128.32c2.21,0,4.41,0,6.62,0,.21,0,.32-.04,.33-.27,0-.23,.06-.46,.08-.7,.09-1.77-.52-3.33-2.3-4-1.85-.69-3.66-.47-5.25,.75-1.5,1.15-2.05,2.76-1.94,4.61,.09,1.59,.89,2.74,2.38,3.31,1.76,.67,3.51,.5,5.18-.38,.25-.13,.46-.32,.7-.49l-.9-1.5c-.07,.06-.11,.09-.15,.12-.04,.03-.08,.06-.12,.09-1.19,.8-2.47,.95-3.81,.47-.81-.29-1.31-1.18-1.18-2.02h.35Zm1.19-3.23c.82-.45,1.69-.51,2.56-.2,.88,.31,1.38,1.11,1.28,2h-5.22c.23-.81,.67-1.42,1.38-1.8Z"/><path class="j" d="M93.43,128.32c2.2,0,4.39,0,6.59,0,.21,0,.35-.03,.35-.28,0-.55,.08-1.1,.03-1.64-.13-1.41-.84-2.47-2.16-3-1.72-.69-3.43-.55-4.99,.46-1.74,1.13-2.4,2.83-2.3,4.85,.08,1.59,.88,2.75,2.37,3.32,1.77,.67,3.53,.51,5.21-.38,.24-.13,.46-.32,.69-.49l-.88-1.48c-1.32,.86-2.17,1.06-3.46,.85-1.18-.19-1.91-1.05-1.83-2.21h.38Zm-.22-1.42c.08-.22,.14-.42,.24-.6,.69-1.37,2.43-1.98,3.84-1.36,.81,.36,1.28,1.15,1.15,1.96h-5.23Z"/><path class="j" d="M153.94,128.32c2.18,0,4.35,0,6.53,0,.3,0,.43-.08,.43-.37,0-.52,.07-1.04,.02-1.55-.14-1.42-.85-2.49-2.19-3.01-1.71-.68-3.41-.54-4.96,.46-1.74,1.12-2.41,2.83-2.3,4.84,.08,1.59,.88,2.75,2.37,3.32,1.78,.68,3.55,.52,5.23-.4,.24-.13,.44-.31,.67-.47l-.88-1.47c-1.37,.86-2.18,1.06-3.46,.85-1.18-.19-1.91-1.04-1.83-2.21h.38Zm-.2-1.42c.23-.82,.68-1.43,1.4-1.82,.81-.43,1.67-.49,2.54-.19,.88,.3,1.37,1.09,1.29,2.01h-5.23Z"/><path class="j" d="M70.42,132.27h-2.16c.17-.87,.35-1.74,.51-2.6,.18-.97,.39-1.93,.53-2.91,.16-1.11-.45-1.81-1.56-1.88-1.69-.1-2.84,.74-3.23,2.42-.35,1.56-.65,3.14-.97,4.72-.04,.2-.11,.26-.31,.26-.62-.01-1.24,0-1.88,0,.25-1.27,.49-2.5,.73-3.73,.34-1.7,.69-3.41,1.01-5.11,.05-.26,.14-.33,.4-.32,.55,.02,1.1,0,1.69,0l-.16,.94c.1-.07,.17-.1,.23-.14,1.27-.93,2.69-1.11,4.18-.73,1.46,.38,2.29,1.63,2.06,3.23-.29,1.96-.71,3.89-1.08,5.86Z"/><path class="j" d="M90.59,123.17c-.11,.54-.22,1.02-.3,1.5-.03,.18-.11,.23-.28,.23-.73,0-1.46,0-2.24,0-.09,.45-.18,.89-.27,1.33-.2,1.04-.42,2.07-.61,3.11-.15,.86,.27,1.35,1.14,1.3,.37-.02,.74-.17,1.14-.26,.1,.41,.22,.88,.31,1.35,.01,.07-.06,.19-.12,.22-1.07,.52-2.18,.66-3.3,.22-.99-.39-1.53-1.35-1.36-2.44,.18-1.17,.44-2.33,.66-3.5,.08-.43,.17-.85,.26-1.32h-1.49c.11-.56,.21-1.09,.33-1.6,.01-.05,.15-.11,.24-.11,.32-.01,.65-.02,.98,0,.23,.01,.32-.07,.35-.3,.1-.6,.23-1.19,.35-1.79h2.13l-.41,2.08h2.47Z"/><path class="j" d="M122.79,132.25c.84-4.23,1.69-8.46,2.53-12.7h2.14c-.27,1.38-.54,2.75-.81,4.11-.54,2.73-1.09,5.46-1.64,8.18-.1,.51,.03,.44-.52,.44-.54,0-1.08,0-1.62,0-.02,0-.04-.01-.08-.03Z"/><path class="j" d="M144.28,132.28c.31-1.59,.62-3.13,.93-4.68,.28-1.4,.56-2.79,.83-4.19,.04-.22,.11-.31,.35-.3,.57,.02,1.13,0,1.74,0l-.21,1.14c.99-1.05,2.19-1.23,3.52-1.25-.1,.55-.22,1.07-.29,1.6-.04,.32-.14,.42-.49,.41-1.85-.09-2.96,.89-3.34,2.84-.27,1.4-.57,2.79-.84,4.18-.04,.19-.11,.25-.29,.24-.62-.01-1.24,0-1.9,0Z"/><path class="j" d="M59.39,116.97c-1.03,.74-2.05,1.49-3.08,2.23-.05,.04-.13,.06-.2,.06-.57,0-1.14,0-1.76,0,.07-.09,.12-.15,.17-.2,.74-.67,1.47-1.34,2.21-2,.08-.07,.21-.14,.31-.14,.77-.01,1.54,0,2.31,0l.02,.06Z"/></g><path class="j" d="M257.83,118.79c-3.31,8.5-6.62,16.99-9.99,25.65h21.12l.08,.21c-12.33,13.21-24.65,26.41-36.98,39.62l-.12-.07,12.56-28.44c-5.93,.07-11.77,.14-17.79,.21l30.99-37.24,.12,.06Z"/></g><rect class="n" x="15" y="99.91" width="267" height="111" rx="12" ry="12"/></g><g><g><path class="j" d="M263.01-6.24c-1.46-5.45-4.73-9.31-10.06-11.29-3.78-1.41-7.69-1.56-11.63-.92-4.93,.81-9.09,3.13-12.61,6.63-2.83,2.82-4.87,6.15-6.36,9.84-1.72,4.27-2.48,8.72-2.56,13.3-.04,2.19,.08,4.37,.62,6.51,1.52,6.02,5.18,10.06,11.13,11.94,2.23,.7,4.53,.98,6.86,.89,1.32-.05,2.65-.13,3.94-.35,4.8-.82,8.87-3.08,12.33-6.47,2.72-2.67,4.73-5.83,6.22-9.33,1.97-4.63,2.8-9.49,2.83-15.14,.03-1.47-.16-3.57-.7-5.61Zm-20.54,8.55h10.59l.04,.11c-6.18,6.62-12.36,13.25-18.55,19.87l-.06-.03,6.3-14.27-8.92,.1,15.55-18.68,.06,.03-5.01,12.87Z"/><path class="j" d="M267.48-17.69h.37c5.42,0,10.85,0,16.27,0,.26,0,.39,.07,.51,.31,1.8,3.68,3.6,7.35,5.41,11.02,.07,.15,.15,.29,.32,.52,.06-.1,.1-.22,.18-.31,3.23-3.77,6.46-7.54,9.69-11.31,.14-.16,.27-.23,.49-.23,5.79,0,11.58,0,17.37,0h.29c-7.21,7.95-14.37,15.86-21.55,23.77,4.23,7.83,8.46,15.65,12.71,23.52h-.34c-5.52,0-11.03,0-16.55,0-.26,0-.37-.09-.47-.31-1.87-3.88-3.75-7.76-5.62-11.63-.03-.06-.06-.12-.12-.23-.13,.14-.24,.26-.35,.39-3.24,3.83-6.47,7.66-9.7,11.5-.17,.21-.35,.29-.62,.28-6.08,0-12.17,0-18.25,0h-.4c.41-.45,.78-.86,1.15-1.27,5.67-6.22,11.35-12.45,17.02-18.67,1.3-1.43,2.6-2.86,3.91-4.28,.18-.19,.18-.33,.06-.55-2.61-4.96-5.21-9.93-7.81-14.9-1.3-2.47-2.59-4.95-3.89-7.43-.02-.04-.04-.09-.1-.2Z"/><path class="j" d="M222.85-18.77c-.18,.91-.35,1.78-.53,2.66-.99,4.95-1.98,9.9-2.97,14.85-1.05,5.23-2.09,10.46-3.14,15.69-.99,4.94-1.98,9.88-2.96,14.83-.05,.23-.12,.32-.37,.32-5.23,0-10.46,0-15.69,0-.09,0-.18,0-.31-.02l7.18-36.02h-8.29l2.49-12.3h24.59Z"/></g><rect class="n" x="163.5" y="-55.5" width="267" height="111" rx="12" ry="12"/></g><g><g><path class="j" d="M-29.52-17.69h.37c5.42,0,10.85,0,16.27,0,.26,0,.39,.07,.51,.31,1.8,3.68,3.6,7.35,5.41,11.02,.07,.15,.15,.29,.32,.52,.06-.1,.1-.22,.18-.31C-3.23-9.92,0-13.69,3.23-17.46c.14-.16,.27-.23,.49-.23,5.79,0,11.58,0,17.37,0h.29C14.17-9.73,7.01-1.83-.16,6.09c4.23,7.83,8.46,15.65,12.71,23.52h-.34c-5.52,0-11.03,0-16.55,0-.26,0-.37-.09-.47-.31-1.87-3.88-3.75-7.76-5.62-11.63-.03-.06-.06-.12-.12-.23-.13,.14-.24,.26-.35,.39-3.24,3.83-6.47,7.66-9.7,11.5-.17,.21-.35,.29-.62,.28-6.08,0-12.17,0-18.25,0h-.4c.41-.45,.78-.86,1.15-1.27,5.67-6.22,11.35-12.45,17.02-18.67,1.3-1.43,2.6-2.86,3.91-4.28,.18-.19,.18-.33,.06-.55-2.61-4.96-5.21-9.93-7.81-14.9-1.3-2.47-2.59-4.95-3.89-7.43-.02-.04-.04-.09-.1-.2Z"/><path class="j" d="M109.33-36.62c-3.31,8.5-6.62,16.99-9.99,25.65h21.12l.08,.21c-12.33,13.21-24.65,26.41-36.98,39.62l-.12-.07L96,.35c-5.93,.07-11.77,.14-17.79,.21l30.99-37.24,.12,.06Z"/></g><rect class="n" x="-133.5" y="-55.5" width="267" height="111" rx="12" ry="12"/></g></g></pattern></defs><g class="l"><g id="a"/><g id="b"/><g id="c"/><g id="d"/><g id="e"><g><path id="g" class="m" d="M0,0H4594V2099.01c0,65.4-53.1,118.5-118.5,118.5H118.5C53.1,2217.51,0,2164.41,0,2099.01V0H0Z"/><path id="i" class="k" d="M0,0H4594V2099.5c0,65.4-53.1,118.5-118.5,118.5H118.5c-65.4,0-118.5-53.1-118.5-118.5V0H0Z"/></g></g></g></svg>