<?xml version="1.0" encoding="UTF-8"?><svg xmlns="http://www.w3.org/2000/svg" viewBox="0 0 351 362"><defs><style>.f{fill:#fff;}</style></defs><g id="a"/><g id="b"/><g id="c"/><g id="d"/><g id="e"><g><path class="f" d="M190.65,355.29c-20.22,0-40.45,.04-60.67,0-54.74-.12-97.82-43.18-97.9-97.9-.06-40.45-.06-80.9,0-121.35,.08-54.73,43.17-97.83,97.89-97.9,40.45-.06,80.89-.06,121.34,0,54.72,.08,97.81,43.15,97.9,97.89,.07,40.45,.07,80.9,0,121.35-.09,54.75-43.14,97.79-97.89,97.91-20.22,.04-40.45,0-60.67,0ZM58,196.48h-.04c0,19.69,.01,39.38,0,59.06,0,5.27,.24,10.52,1.27,15.7,6.7,33.77,34.76,57.7,69.2,58.03,41.53,.4,83.06,.09,124.59,.09,4.19,0,8.35-.45,12.45-1.29,34.49-7,57.72-35.58,57.83-71.46,.12-39.91,.02-79.83,.03-119.75,0-5-.32-9.97-1.31-14.88-6.81-33.77-34.86-57.53-69.36-57.84-41.39-.37-82.79-.09-124.18-.08-4.19,0-8.35,.43-12.46,1.25-33.76,6.74-57.42,34.82-57.96,69.28-.32,20.63-.06,41.26-.06,61.89Z"/><path class="f" d="M108.6,197.08c.08-45.92,37.29-83.04,83.19-82.99,46,.06,83.09,37.43,82.99,83.62-.1,45.51-37.51,82.62-83.21,82.54-45.96-.08-83.04-37.26-82.97-83.17Zm25.83-.07c-.16,31.52,25.34,57.17,56.93,57.26,31.57,.1,57.23-25.35,57.36-56.89,.14-31.43-25.51-57.23-56.97-57.34-31.5-.11-57.16,25.4-57.32,56.96Z"/><path class="f" d="M256.74,111.67c.02-10.23,8.31-18.53,18.5-18.52,10.14,0,18.54,8.42,18.52,18.56-.02,10.13-8.46,18.58-18.55,18.56-10.16-.01-18.49-8.4-18.47-18.6Z"/></g></g></svg>