<?xml version="1.0" encoding="UTF-8"?><svg xmlns="http://www.w3.org/2000/svg" xmlns:xlink="http://www.w3.org/1999/xlink" viewBox="0 0 379 379"><defs><style>.h{fill:#fff;}.i{fill:#c97f36;}.j{fill:#dd3e33;}.k{fill:url(#f);stroke:url(#g);stroke-miterlimit:10;stroke-width:13px;}</style><linearGradient id="f" x1="6.5" y1="189.5" x2="372.5" y2="189.5" gradientTransform="matrix(1, 0, 0, 1, 0, 0)" gradientUnits="userSpaceOnUse"><stop offset="0" stop-color="#002887"/><stop offset=".04" stop-color="#002898"/><stop offset=".13" stop-color="#0129b3"/><stop offset=".22" stop-color="#022ac8"/><stop offset=".33" stop-color="#022bd7"/><stop offset=".45" stop-color="#022be0"/><stop offset=".64" stop-color="#032ce3"/></linearGradient><linearGradient id="g" x1="0" y1="189.5" x2="379" y2="189.5" gradientTransform="matrix(1, 0, 0, 1, 0, 0)" gradientUnits="userSpaceOnUse"><stop offset=".1" stop-color="#ff3d28"/><stop offset=".27" stop-color="#db822e"/><stop offset=".45" stop-color="#ff3d28"/><stop offset=".68" stop-color="#eb632b"/><stop offset=".82" stop-color="#ff3d28"/><stop offset=".94" stop-color="#ea652c"/></linearGradient></defs><g id="a"/><g id="b"/><g id="c"/><g id="d"/><g id="e"><circle class="k" cx="189.5" cy="189.5" r="183"/><g><path class="h" d="M128.03,290.58c-7.65,.08-15.04-1.22-21.91-4.63-12.77-6.33-21.91-16.03-26.58-29.63-2.16-6.28-2.72-12.78-2.25-19.39,.55-7.58,2.61-14.69,6.67-21.12,6.98-11.06,16.53-18.93,29.19-22.71,6.17-1.84,12.49-2.29,18.89-1.83,5.91,.42,11.6,1.71,16.99,4.19,7.95,3.67,14.42,9.14,19.5,16.25,2.47,3.45,1.16,7.87-2.76,9.5-2.31,.95-4.63,1.87-6.95,2.78-3.23,1.27-6.37,1.02-9.43-.58-1.66-.87-3.1-2.03-4.44-3.33-3.6-3.5-7.86-5.8-12.82-6.6-15.93-2.59-26.66,7.87-29.51,18.69-1.65,6.26-1.7,12.57,.43,18.7,3.46,9.96,10.46,15.95,20.95,17.49,5.93,.87,11.62-.14,16.81-3.35,1.58-.98,3.03-2.14,4.34-3.47,.88-.89,1.82-1.71,2.8-2.5,2.84-2.31,6.02-2.87,9.5-1.86,.76,.22,1.52,.47,2.26,.76,2.11,.83,4.22,1.67,6.32,2.53,3.72,1.53,5.1,5.51,3.11,9.02-5.51,9.73-13.74,15.95-24.46,18.96-5.43,1.52-10.99,2.13-16.62,2.12Z"/><path class="h" d="M213.94,192.56c2.69,0,5.38-.01,8.07,0,2.02,.01,4.01,.24,5.92,.93,3.03,1.1,5.33,3.12,7.15,5.73,3.39,4.84,6.78,9.68,10.17,14.52,1.04,1.49,2.17,2.93,3.11,4.48,1.84,3.02,5.39,2.67,7.15,.02,4.27-6.44,8.72-12.76,13.1-19.12,1.91-2.77,4.38-4.79,7.62-5.81,1.72-.54,3.48-.73,5.27-.74,6.03-.02,12.05,0,18.08,0,.08,0,.15,0,.23,0,.81-.03,1.54,.16,1.9,.96,.33,.74,.07,1.38-.4,2-2.18,2.86-4.34,5.74-6.5,8.62-8.05,10.68-16.09,21.36-24.13,32.05-2.44,3.24-2.4,6.95,.08,10.17,10.01,13,20.03,25.99,30.04,38.99,.25,.33,.53,.65,.75,1,.64,1.07,.08,2.3-1.15,2.51-.26,.04-.53,.03-.79,.03-6.22,0-12.43,.02-18.65,0-5.15-.02-9.29-2.07-12.42-6.2-21.87-28.82-43.76-57.64-65.64-86.45-.27-.36-.58-.71-.82-1.09-.7-1.12-.13-2.34,1.19-2.54,.33-.05,.68-.03,1.02-.03,3.22,0,6.44,0,9.66,0Z"/><path class="i" d="M298.28,163.24c.06,2.47,.07,4.48-.08,6.48-.28,3.72-3.26,6.87-6.92,7.58-4.63,.9-10.2-2.49-10.09-8.77,.07-4.21,0-8.41-.33-12.6-.85-10.76-3.07-21.18-7.6-31.04-5.59-12.17-14.06-21.84-25.34-29.05-8.18-5.23-17.08-8.76-26.46-11.13-5.7-1.44-11.48-2.38-17.33-2.91-2.72-.24-5.44-.35-8.17-.31-3.98,.05-7.34-2.55-8.37-6.4-1.4-5.24,2.49-10.49,7.9-10.64,4.36-.12,8.7,.16,13.04,.62,6.37,.68,12.65,1.83,18.84,3.49,13.16,3.52,25.36,9.05,36.18,17.41,11.32,8.74,19.86,19.68,25.69,32.74,3.03,6.8,5.19,13.89,6.64,21.19,1.08,5.47,1.76,10.98,2.12,16.54,.16,2.42,.1,4.85,.28,6.8Z"/><path class="h" d="M198.51,240.77c.37,11.93,.75,23.85,1.12,35.78,.06,2.04,.12,4.09,.18,6.13,.09,3.56-2.39,6.17-5.95,6.19-4.13,.02-8.26,.03-12.39,0-3.57-.03-6.1-2.73-6.01-6.3,.22-9.01,.43-18.03,.65-27.04,.24-9.73,.48-19.47,.72-29.2,.15-6.21,.3-12.42,.45-18.63,.08-3.14,.15-6.29,.23-9.43,.03-1.11,.2-2.19,.81-3.15,1.06-1.67,2.62-2.51,4.56-2.55,2.8-.05,5.61-.08,8.41,0,3.48,.1,5.81,2.56,5.92,6.05,.39,12.87,.78,25.75,1.18,38.62,.04,1.17,.1,2.35,.16,3.52h-.04Z"/><path class="j" d="M262.49,167.75c0,1.17-.01,2.35,0,3.52,.05,4.05-3.2,8.36-8.51,8.43-4.69,.06-8.51-3.79-8.55-8.53-.02-2.95,.01-5.91-.26-8.86-.77-8.29-2.84-16.17-7.41-23.24-4.54-7.02-10.83-11.97-18.38-15.39-5.84-2.65-11.97-4.2-18.33-4.92-2.45-.28-4.9-.4-7.37-.42-4.38-.03-7.95-3.49-8.22-8.1-.26-4.36,2.8-7.93,6.76-8.75,1.65-.34,3.32-.23,4.98-.15,6.22,.3,12.34,1.24,18.35,2.9,8.85,2.45,17.03,6.26,24.24,12,9.34,7.44,15.65,16.96,19.23,28.32,1.54,4.89,2.51,9.89,3.01,15,.27,2.72,.45,5.43,.45,8.16Z"/><path class="i" d="M194.21,136.13c3.77,.14,7.47,.68,11.07,1.8,7.11,2.21,12.93,6.2,17.05,12.49,2.44,3.73,3.88,7.86,4.64,12.23,.48,2.81,.67,5.64,.63,8.49-.06,3.83-2.47,6.96-6.1,7.98-5.14,1.44-10.35-2.43-10.41-7.78-.03-2.12-.05-4.24-.48-6.33-.68-3.36-2.05-6.34-4.79-8.54-2.24-1.8-4.85-2.76-7.63-3.31-1.9-.38-3.82-.57-5.76-.44-3.67,.24-8.22-2.39-8.58-7.77-.3-4.49,3.02-8.1,7.08-8.62,1.09-.14,2.19-.14,3.29-.21Z"/><path class="h" d="M214.78,289.44c-3.26,0-6.51,0-9.77,0-.34,0-.69,.02-1.02-.04-.99-.18-1.54-1.24-1.16-2.18,.13-.33,.37-.57,.59-.83,8.65-10.09,17.32-20.17,25.96-30.27,1.6-1.87,3.56-2.74,6.02-2.47,.73,.08,1.4,.31,2.05,.63,3.06,1.48,6.13,2.95,9.18,4.46,2.49,1.23,3.22,3.91,1.66,6.21-4.05,5.99-8.1,11.98-12.23,17.91-3.02,4.33-7.23,6.55-12.54,6.57-2.92,.01-5.83,0-8.75,0Z"/><path class="h" d="M187.27,188.24c-6.94,.02-12.54-5.55-12.53-12.46,.01-6.87,5.56-12.42,12.44-12.44,6.95-.02,12.51,5.52,12.51,12.46,0,6.89-5.52,12.42-12.42,12.44Z"/></g></g></svg>