<?xml version="1.0" encoding="UTF-8"?><svg xmlns="http://www.w3.org/2000/svg" viewBox="0 0 139.01 139"><defs><style>.f{fill:#9b9b9b;}.g{fill:#fefefe;}</style></defs><g id="a"/><g id="b"/><g id="c"/><g id="d"/><g id="e"><g><path class="g" d="M68.2,.01c38.35-.65,70.18,29.94,70.8,68.03,.62,38.66-29.91,70.36-68.34,70.95C32.38,139.58,.7,109.07,.01,70.96-.68,32.45,29.86,.66,68.2,.01Z"/><g><path class="f" d="M66.44,84.73c-2.55,.05-5.1,.2-7.63,.52-.96,.12-1.06,.26-.79,1.17,1.88,6.46,4.85,12.34,9.27,17.45,.86,.99,.88,.99,1.75,0,1.9-2.16,3.53-4.52,4.95-7.03,.15-.27,.23-.73,.56-.7,.37,.03,.31,.5,.37,.79,.86,3.76,1.7,7.52,2.54,11.29,.25,1.1,.22,1.16-.91,1.37-14.95,2.76-27.79-1.3-37.71-12.79-9.91-11.47-12.34-24.87-7.03-39.06,5.32-14.25,15.96-22.73,31.01-25.08,22.77-3.56,43.75,14,44.65,37.05,.21,5.44-.64,10.69-2.6,15.76-.42,1.09-.46,1.1-1.47,.56-.97-.52-1.92-1.08-2.92-1.55-.73-.34-.86-.73-.58-1.49,2.11-5.7,2.63-11.56,1.58-17.55-.28-1.63-.71-3.23-1.22-4.8-.2-.63-.5-.82-1.15-.57-4.14,1.54-8.38,2.74-12.7,3.61-.76,.15-.99,.51-.9,1.26,.41,3.23,.43,6.48,.29,9.73-.02,.38-.06,.75-.1,1.13-.05,.43-.28,.56-.66,.36-1.43-.76-2.86-1.53-4.29-2.3-.48-.26-.41-.72-.4-1.15,.08-2.26-.05-4.52-.29-6.77-.11-1.03-.24-1.14-1.27-1.02-7.12,.84-14.23,.81-21.34-.08-.84-.1-1.13,.15-1.21,.97-.46,4.32-.38,8.63,.17,12.93,.14,1.12,.26,1.22,1.4,1.09,3.92-.45,7.86-.68,11.8-.63,1.32,.02,1.33,.02,1.61,1.29,.25,1.1,.48,2.21,.75,3.31,.17,.69-.05,.96-.77,.95-1.59-.03-3.19,0-4.78,0Zm-31.65-13.35c0,4.12,.77,8.28,2.34,12.3,.3,.77,.66,.94,1.44,.65,3.74-1.36,7.56-2.44,11.46-3.22,.88-.18,1.11-.55,.99-1.42-.68-4.93-.74-9.88-.17-14.83,.09-.81-.16-1.14-.95-1.3-4.12-.85-8.16-2-12.11-3.47-.78-.29-1.07-.06-1.31,.66-1.11,3.39-1.67,6.87-1.69,10.61Zm33.58-11.35c3.16,0,6.31-.17,9.45-.54,1.03-.12,1.1-.21,.83-1.2-1.93-7.11-5.17-13.56-9.71-19.37-.74-.94-.78-.94-1.5-.03-4.5,5.76-7.73,12.15-9.68,19.19-.33,1.18-.28,1.23,.98,1.38,3.2,.37,6.4,.57,9.62,.56Zm16.55-1.67c.09-.01,.17-.02,.26-.04,3.96-.8,7.83-1.9,11.63-3.25,.85-.3,.59-.73,.27-1.25-4.8-7.63-11.53-12.66-20.24-15.02-.29-.08-.68-.31-.89-.02-.22,.3,.14,.58,.3,.83,2.27,3.49,4.18,7.16,5.7,11.03,.89,2.27,1.64,4.59,2.24,6.95,.1,.38,.14,.85,.74,.76Zm-24.34-19.53c-.29-.18-.49-.08-.67-.03-8.75,2.41-15.51,7.48-20.3,15.18-.41,.66-.17,.89,.45,1.11,3.56,1.26,7.17,2.28,10.86,3.09,.82,.18,1.14-.09,1.34-.87,1.33-5.26,3.41-10.21,6.13-14.9,.69-1.2,1.45-2.36,2.2-3.59Zm-8.85,47.54c-.09,.01-.17,.03-.26,.04-3.55,.73-7.04,1.7-10.47,2.87-.69,.24-.67,.56-.3,1.08,4.6,6.54,10.72,10.98,18.39,13.26,.26,.08,.61,.3,.81,.02,.2-.28-.14-.53-.29-.75-2.05-3.07-3.76-6.33-5.12-9.76-.78-1.97-1.44-3.98-2.01-6.02-.1-.38-.15-.85-.75-.75Z"/><path class="f" d="M75.17,76.73c-.03-.45,.2-.46,.49-.32,.39,.19,.78,.39,1.16,.6,9.85,5.3,19.71,10.59,29.55,15.9,.31,.16,.85,.22,.79,.67-.05,.35-.57,.32-.89,.41-2.76,.79-5.52,1.57-8.28,2.35q-1.28,.36-.51,1.41c2.43,3.28,4.85,6.58,7.3,9.84,.48,.64,.43,.99-.22,1.45-1.91,1.36-3.78,2.78-5.67,4.18-.95,.7-.96,.7-1.69-.29-2.41-3.26-4.82-6.52-7.24-9.79-.7-.95-.74-.95-1.41,.06-1.64,2.46-3.26,4.93-4.9,7.39-.15,.23-.24,.61-.6,.54-.29-.06-.27-.41-.33-.66-2.5-11.11-4.99-22.23-7.49-33.34-.03-.14-.06-.28-.08-.4Z"/></g></g></g></svg>