<?xml version="1.0" encoding="UTF-8"?><svg xmlns="http://www.w3.org/2000/svg" viewBox="0 0 632.75 55.84"><defs><style>.f{fill:#fff;}</style></defs><g id="a"/><g id="b"/><g id="c"/><g id="d"/><g id="e"><g><path class="f" d="M149.71,13.23c-12.55,0-21.64,9.31-21.64,20.41v.15c0,11.1,9.01,20.26,21.49,20.26s21.63-9.3,21.63-20.4v-.15c0-11.1-9.01-20.26-21.48-20.26Zm-5.4,33.72l5.13-11.54h-8.97l12.82-15.39-2.56,10.26h8.97l-15.39,16.67Z"/><g><path class="f" d="M0,47.04l8.12-9.69c5.19,4.13,10.97,6.31,17.06,6.31,3.91,0,6.01-1.35,6.01-3.61v-.15c0-2.18-1.73-3.38-8.87-5.04C11.12,32.31,2.48,29.16,2.48,18.34v-.15C2.48,8.42,10.22,1.35,22.85,1.35c8.94,0,15.93,2.4,21.64,6.99l-7.29,10.3c-4.81-3.38-10.07-5.19-14.73-5.19-3.53,0-5.26,1.5-5.26,3.38v.15c0,2.4,1.8,3.46,9.09,5.11,12.1,2.63,19.61,6.54,19.61,16.38v.15c0,10.75-8.49,17.13-21.27,17.13-9.32,0-18.19-2.93-24.65-8.72Z"/><path class="f" d="M52.15,0h14.88V10.52h-14.88V0Zm.3,14.2h14.28V54.86h-14.28V14.2Z"/><path class="f" d="M77.18,42.23V25.7h-4.81V14.2h4.81V3.91h14.28V14.2h9.47v11.5h-9.47v13.75c0,2.86,1.28,4.06,3.91,4.06,1.88,0,3.68-.53,5.41-1.35v11.2c-2.56,1.43-5.94,2.33-9.92,2.33-8.57,0-13.68-3.76-13.68-13.45Z"/><path class="f" d="M107.08,0h14.88V10.52h-14.88V0Zm.3,14.2h14.28V54.86h-14.28V14.2Z"/><path class="f" d="M197.03,2.25h15.41l9.17,30.44,10.15-30.59h12.55l10.15,30.59,9.17-30.44h15.1l-17.58,52.98h-12.7l-10.6-30.29-10.52,30.29h-12.7L197.03,2.25Z"/><path class="f" d="M276.99,34.72v-.15c0-11.87,8.49-21.27,20.52-21.27,14.05,0,20.52,10.3,20.52,22.24,0,.9,0,1.95-.08,2.93h-27.2c1.13,4.43,4.36,6.69,8.79,6.69,3.38,0,6.09-1.28,9.02-4.13l7.89,6.54c-3.91,4.96-9.54,8.27-17.66,8.27-12.78,0-21.79-8.49-21.79-21.12Zm27.65-3.53c-.53-4.51-3.16-7.36-7.06-7.36s-6.31,2.93-7.06,7.36h14.13Z"/><path class="f" d="M338.39,49.9v4.96h-14.28V0h14.28V19.61c2.78-3.38,6.24-6.31,12.32-6.31,9.69,0,18.04,8.04,18.04,21.04v.15c0,13.23-8.34,21.27-17.96,21.27-6.16,0-9.77-2.78-12.4-5.86Zm16.31-15.33v-.15c0-5.34-3.68-9.17-8.34-9.17s-8.27,3.83-8.27,9.17v.15c0,5.41,3.68,9.24,8.27,9.24s8.34-3.76,8.34-9.24Z"/></g></g></g></svg>