<?xml version="1.0" encoding="UTF-8"?><svg xmlns="http://www.w3.org/2000/svg" viewBox="0 0 649 70"><defs><style>.f{fill:#fff;}</style></defs><g id="a"/><g id="b"/><g id="c"/><g id="d"><g><path class="f" d="M536.09,16.34c-11.45,0-19.74,8.49-19.74,18.62v.13c0,10.13,8.22,18.48,19.6,18.48s19.73-8.48,19.73-18.61v-.13c0-10.13-8.22-18.48-19.6-18.48Zm-4.92,30.75l4.68-10.53h-8.19l11.69-14.04-2.34,9.36h8.19l-14.04,15.2Z"/><path class="f" d="M19.47,53.5c-3.77,0-7.37-.47-10.82-1.4s-6.23-2.11-8.35-3.54l4.22-9.55c2.04,1.3,4.39,2.37,7.05,3.22,2.66,.84,5.32,1.27,7.96,1.27,1.82,0,3.26-.15,4.32-.45,1.06-.3,1.84-.74,2.34-1.3,.5-.56,.75-1.23,.75-2.01,0-1-.48-1.79-1.43-2.37-.95-.58-2.2-1.08-3.74-1.49-1.54-.41-3.21-.8-5-1.17-1.8-.37-3.63-.85-5.49-1.46-1.86-.61-3.55-1.41-5.07-2.4-1.52-1-2.74-2.29-3.67-3.9-.93-1.6-1.4-3.62-1.4-6.04,0-2.68,.74-5.13,2.21-7.34,1.47-2.21,3.7-3.98,6.69-5.33,2.99-1.34,6.71-2.01,11.17-2.01,2.99,0,5.92,.34,8.8,1.01,2.88,.67,5.42,1.68,7.63,3.02l-3.9,9.48c-2.17-1.21-4.31-2.1-6.43-2.66-2.12-.56-4.18-.84-6.17-.84-1.78,0-3.21,.19-4.29,.58-1.08,.39-1.86,.89-2.34,1.49-.48,.61-.71,1.26-.71,1.95,0,1.04,.48,1.85,1.43,2.44,.95,.58,2.19,1.06,3.7,1.43,1.52,.37,3.19,.75,5.03,1.14,1.84,.39,3.67,.88,5.49,1.46s3.5,1.36,5.03,2.34c1.54,.97,2.78,2.25,3.74,3.83,.95,1.58,1.43,3.56,1.43,5.94,0,2.64-.75,5.08-2.24,7.31-1.49,2.23-3.74,4.02-6.72,5.36-2.99,1.34-6.73,2.01-11.24,2.01Z"/><path class="f" d="M62.61,53.18c-3.86,0-7.28-.78-10.26-2.34-2.99-1.56-5.34-3.71-7.05-6.46-1.71-2.75-2.57-5.88-2.57-9.39s.85-6.7,2.57-9.45c1.71-2.75,4.06-4.9,7.05-6.46s6.41-2.34,10.26-2.34,7.29,.78,10.3,2.34c3.01,1.56,5.37,3.71,7.08,6.46,1.71,2.75,2.57,5.9,2.57,9.45s-.86,6.64-2.57,9.39c-1.71,2.75-4.07,4.9-7.08,6.46-3.01,1.56-6.44,2.34-10.3,2.34Zm0-9.81c1.39,0,2.63-.32,3.74-.97s1.99-1.61,2.66-2.89c.67-1.28,1.01-2.8,1.01-4.58s-.34-3.33-1.01-4.55c-.67-1.21-1.56-2.14-2.66-2.79s-2.35-.97-3.74-.97-2.63,.32-3.74,.97-1.99,1.58-2.66,2.79c-.67,1.21-1.01,2.73-1.01,4.55s.33,3.3,1.01,4.58c.67,1.28,1.56,2.24,2.66,2.89s2.35,.97,3.74,.97Z"/><path class="f" d="M88.2,65.2V17.32h11.82v6.04l-.13,11.69,.65,11.63v18.51h-12.34Zm22.15-12.02c-2.99,0-5.54-.66-7.67-1.98-2.12-1.32-3.74-3.32-4.84-6.01-1.1-2.68-1.66-6.06-1.66-10.13s.52-7.7,1.56-10.36c1.04-2.66,2.61-4.66,4.71-5.98,2.1-1.32,4.73-1.98,7.89-1.98s6.12,.76,8.74,2.27c2.62,1.52,4.7,3.63,6.24,6.33,1.54,2.71,2.31,5.94,2.31,9.71s-.77,6.89-2.31,9.61c-1.54,2.73-3.62,4.83-6.24,6.3-2.62,1.47-5.53,2.21-8.74,2.21Zm-2.6-9.81c1.39,0,2.63-.32,3.74-.97s1.99-1.6,2.66-2.86c.67-1.26,1.01-2.75,1.01-4.48,0-1.86-.34-3.41-1.01-4.64-.67-1.23-1.56-2.18-2.66-2.83s-2.35-.97-3.74-.97-2.63,.32-3.74,.97-1.99,1.59-2.66,2.83c-.67,1.23-1.01,2.78-1.01,4.64,0,1.73,.33,3.23,1.01,4.48,.67,1.26,1.56,2.21,2.66,2.86s2.35,.97,3.74,.97Z"/><path class="f" d="M151.03,53.18c-3.86,0-7.28-.78-10.26-2.34-2.99-1.56-5.34-3.71-7.05-6.46-1.71-2.75-2.57-5.88-2.57-9.39s.85-6.7,2.57-9.45c1.71-2.75,4.06-4.9,7.05-6.46s6.41-2.34,10.26-2.34,7.29,.78,10.3,2.34c3.01,1.56,5.37,3.71,7.08,6.46,1.71,2.75,2.57,5.9,2.57,9.45s-.86,6.64-2.57,9.39c-1.71,2.75-4.07,4.9-7.08,6.46-3.01,1.56-6.44,2.34-10.3,2.34Zm0-9.81c1.39,0,2.63-.32,3.74-.97s1.99-1.61,2.66-2.89c.67-1.28,1.01-2.8,1.01-4.58s-.34-3.33-1.01-4.55c-.67-1.21-1.56-2.14-2.66-2.79s-2.35-.97-3.74-.97-2.63,.32-3.74,.97-1.99,1.58-2.66,2.79c-.67,1.21-1.01,2.73-1.01,4.55s.33,3.3,1.01,4.58c.67,1.28,1.56,2.24,2.66,2.89s2.35,.97,3.74,.97Z"/><path class="f" d="M176.62,52.59V17.32h11.82v10.33l-1.82-2.92c1.08-2.64,2.78-4.63,5.1-5.98,2.32-1.34,5.14-2.01,8.48-2.01v11.17c-.56-.09-1.06-.14-1.49-.16-.43-.02-.87-.03-1.3-.03-2.51,0-4.55,.68-6.11,2.05-1.56,1.36-2.34,3.58-2.34,6.66v16.18h-12.34Z"/><path class="f" d="M202.67,27.91v-9.23h25.53v9.23h-25.53Zm19.42,25.27c-4.5,0-8.01-1.11-10.52-3.35-2.51-2.23-3.77-5.6-3.77-10.1V9.46h12.34v30.08c0,1.34,.33,2.36,1.01,3.05,.67,.69,1.57,1.04,2.7,1.04,1.43,0,2.68-.37,3.77-1.1l3.12,8.58c-1.13,.74-2.44,1.27-3.93,1.59s-3.06,.49-4.71,.49Z"/><path class="f" d="M252.89,53.18c-4.2,0-7.85-.79-10.95-2.37-3.1-1.58-5.5-3.75-7.21-6.5-1.71-2.75-2.57-5.86-2.57-9.32s.83-6.7,2.5-9.45c1.67-2.75,3.96-4.9,6.89-6.46s6.25-2.34,9.97-2.34c3.46,0,6.62,.73,9.45,2.18,2.84,1.45,5.11,3.53,6.82,6.24,1.71,2.71,2.57,6.01,2.57,9.91,0,.43-.02,.93-.06,1.49-.04,.56-.09,1.08-.13,1.56h-27.87v-6.5h21.31l-4.68,1.82c.04-1.56-.25-2.93-.88-4.13-.63-1.19-1.48-2.11-2.57-2.76-1.08-.65-2.36-.97-3.83-.97s-2.84,.32-3.96,.97c-1.13,.65-1.98,1.57-2.57,2.76-.58,1.19-.88,2.59-.88,4.19v1.88c0,1.73,.36,3.23,1.07,4.48,.71,1.26,1.74,2.22,3.09,2.89,1.34,.67,2.94,1.01,4.81,1.01s3.27-.25,4.48-.75c1.21-.5,2.42-1.27,3.64-2.31l6.43,6.82c-1.65,1.82-3.7,3.22-6.17,4.19s-5.37,1.46-8.71,1.46Z"/><path class="f" d="M305.25,52.59V17.32h-13.97V7.12h40.73v10.2h-13.9V52.59h-12.86Z"/><path class="f" d="M351.18,53.18c-4.2,0-7.85-.79-10.95-2.37-3.1-1.58-5.5-3.75-7.21-6.5-1.71-2.75-2.57-5.86-2.57-9.32s.83-6.7,2.5-9.45c1.67-2.75,3.96-4.9,6.89-6.46s6.25-2.34,9.97-2.34c3.46,0,6.62,.73,9.45,2.18,2.84,1.45,5.11,3.53,6.82,6.24,1.71,2.71,2.57,6.01,2.57,9.91,0,.43-.02,.93-.06,1.49-.04,.56-.09,1.08-.13,1.56h-27.87v-6.5h21.31l-4.68,1.82c.04-1.56-.25-2.93-.88-4.13-.63-1.19-1.48-2.11-2.57-2.76-1.08-.65-2.36-.97-3.83-.97s-2.84,.32-3.96,.97c-1.13,.65-1.98,1.57-2.57,2.76-.58,1.19-.88,2.59-.88,4.19v1.88c0,1.73,.36,3.23,1.07,4.48,.71,1.26,1.74,2.22,3.09,2.89,1.34,.67,2.94,1.01,4.81,1.01s3.27-.25,4.48-.75c1.21-.5,2.42-1.27,3.64-2.31l6.43,6.82c-1.65,1.82-3.7,3.22-6.17,4.19s-5.37,1.46-8.71,1.46Z"/><path class="f" d="M392.36,53.18c-3.94,0-7.43-.78-10.46-2.34-3.03-1.56-5.41-3.71-7.15-6.46-1.73-2.75-2.6-5.88-2.6-9.39s.87-6.69,2.6-9.42c1.73-2.73,4.11-4.88,7.15-6.46,3.03-1.58,6.52-2.37,10.46-2.37s7.43,.86,10.33,2.57c2.9,1.71,4.96,4.08,6.17,7.11l-9.55,4.94c-.82-1.65-1.84-2.85-3.05-3.61-1.21-.76-2.53-1.14-3.96-1.14s-2.72,.32-3.87,.97c-1.15,.65-2.07,1.58-2.76,2.79-.69,1.21-1.04,2.75-1.04,4.61s.35,3.29,1.04,4.55c.69,1.26,1.61,2.21,2.76,2.86,1.15,.65,2.44,.97,3.87,.97s2.75-.38,3.96-1.14c1.21-.76,2.23-1.96,3.05-3.61l9.55,4.87c-1.21,3.03-3.27,5.4-6.17,7.11-2.9,1.71-6.35,2.57-10.33,2.57Z"/><path class="f" d="M436.48,16.73c2.73,0,5.2,.56,7.41,1.69,2.21,1.13,3.95,2.84,5.23,5.13,1.28,2.3,1.92,5.26,1.92,8.9v20.14h-12.41v-18.12c0-2.51-.51-4.34-1.53-5.49-1.02-1.15-2.39-1.72-4.12-1.72-1.34,0-2.56,.29-3.64,.88-1.08,.58-1.93,1.48-2.53,2.7-.61,1.21-.91,2.82-.91,4.81v16.96h-12.34V17.32h11.82v10.07l-2.34-2.92c1.34-2.51,3.18-4.43,5.52-5.75,2.34-1.32,4.98-1.98,7.93-1.98Z"/><path class="f" d="M458.76,52.59V17.32h12.34V52.59h-12.34Z"/><path class="f" d="M497.09,53.18c-3.94,0-7.43-.78-10.46-2.34-3.03-1.56-5.41-3.71-7.15-6.46-1.73-2.75-2.6-5.88-2.6-9.39s.87-6.69,2.6-9.42c1.73-2.73,4.11-4.88,7.15-6.46,3.03-1.58,6.52-2.37,10.46-2.37s7.43,.86,10.33,2.57c2.9,1.71,4.96,4.08,6.17,7.11l-9.55,4.94c-.82-1.65-1.84-2.85-3.05-3.61-1.21-.76-2.53-1.14-3.96-1.14s-2.72,.32-3.87,.97c-1.15,.65-2.07,1.58-2.76,2.79-.69,1.21-1.04,2.75-1.04,4.61s.35,3.29,1.04,4.55c.69,1.26,1.61,2.21,2.76,2.86,1.15,.65,2.44,.97,3.87,.97s2.75-.38,3.96-1.14c1.21-.76,2.23-1.96,3.05-3.61l9.55,4.87c-1.21,3.03-3.27,5.4-6.17,7.11-2.9,1.71-6.35,2.57-10.33,2.57Z"/><path class="f" d="M464.93,13.39c-2.3,0-4.12-.63-5.49-1.89-1.36-1.26-2.05-2.82-2.05-4.69s.68-3.42,2.05-4.66c1.36-1.24,3.19-1.86,5.49-1.86s4.07,.59,5.46,1.76c1.39,1.17,2.08,2.67,2.08,4.49,0,1.95-.68,3.58-2.05,4.88-1.36,1.3-3.19,1.95-5.49,1.95Z"/><path class="f" d="M345.93,9.55L354.57-.2h12.41l-12.34,9.75h-8.71Z"/></g></g><g id="e"/></svg>