<?xml version="1.0" encoding="UTF-8"?><svg xmlns="http://www.w3.org/2000/svg" viewBox="0 0 1344 195"><defs><style>.f{fill:#666264;}</style></defs><g id="a"/><g id="b"/><g id="c"/><g id="d"/><g id="e"><g><path class="f" d="M536.68,143.05V32.94h25.64l45.46,74.87h-13.53l44.52-74.87h25.64l.16,110.11h-28.63l-.31-66.54h4.88l-33.19,55.68h-13.84l-34.13-55.68h5.98v66.54h-28.63Z"/><path class="f" d="M673.37,143.05l48.61-110.11h30.67l48.76,110.11h-32.4l-38.07-94.85h12.27l-38.07,94.85h-31.77Zm26.58-21.55l8.02-22.81h53.8l8.02,22.81h-69.84Z"/><path class="f" d="M828.16,143.05V57.64h-33.82v-24.7h98.63v24.7h-33.66v85.41h-31.15Z"/><path class="f" d="M953.68,145.25c-16.26,0-28.92-4.46-37.99-13.37-9.07-8.91-13.61-21.5-13.61-37.75V32.94h31.15v60.25c0,9.33,1.83,16.04,5.51,20.13,3.67,4.09,8.75,6.13,15.26,6.13s11.56-2.04,15.18-6.13c3.62-4.09,5.43-10.8,5.43-20.13V32.94h30.83v61.19c0,16.26-4.59,28.84-13.76,37.75-9.18,8.91-21.84,13.37-37.99,13.37Z"/><path class="f" d="M1026.67,143.05V32.94h50.18c10.07,0,18.77,1.63,26.11,4.88,7.34,3.25,12.98,7.94,16.91,14.08,3.93,6.13,5.9,13.35,5.9,21.63s-1.97,15.73-5.9,21.71c-3.93,5.98-9.57,10.57-16.91,13.76-7.34,3.2-16.04,4.8-26.11,4.8h-33.03l14-13.21v42.47h-31.15Zm31.15-38.85l-14-14.47h31.15c6.5,0,11.38-1.42,14.63-4.25,3.25-2.83,4.88-6.82,4.88-11.96s-1.63-8.83-4.88-11.72c-3.25-2.88-8.13-4.33-14.63-4.33h-31.15l14-14.31v61.03Zm36.81,38.85l-27.37-40.11h33.19l27.53,40.11h-33.35Z"/><path class="f" d="M1143.07,143.05V32.94h31.15v110.11h-31.15Zm.16-119.08L1164.15,.23h30.04l-29.89,23.75h-21.08Z"/><path class="f" d="M1196.39,143.05V32.94h25.64l60.56,73.3h-12.11V32.94h30.52v110.11h-25.64l-60.72-73.3h12.11v73.3h-30.36Z"/></g><g><path class="f" d="M199.45,67.44h23.6v9.93h-36.17V32.24h35.33v9.93h-22.76v25.27Zm-.9-17.73h20.95v9.48h-20.95v-9.48Z"/><path class="f" d="M230.2,77.37V32.24h12.77v35.01h21.47v10.12h-34.23Z"/><path class="f" d="M304.08,78.27c-3.74,0-7.32-.46-10.73-1.39-3.42-.92-6.18-2.1-8.28-3.51l4.19-9.48c2.02,1.29,4.35,2.35,6.99,3.19s5.28,1.26,7.9,1.26c1.81,0,3.23-.15,4.29-.45,1.05-.3,1.83-.73,2.32-1.29,.49-.56,.74-1.22,.74-2,0-.99-.47-1.77-1.42-2.35-.95-.58-2.18-1.07-3.71-1.48-1.53-.41-3.18-.79-4.96-1.16-1.78-.36-3.6-.85-5.45-1.45-1.85-.6-3.52-1.4-5.03-2.39-1.5-.99-2.72-2.28-3.64-3.87-.92-1.59-1.39-3.59-1.39-6,0-2.67,.73-5.09,2.19-7.29,1.46-2.19,3.67-3.95,6.64-5.29,2.97-1.33,6.66-2,11.09-2,2.97,0,5.88,.33,8.74,1,2.86,.67,5.38,1.67,7.58,3l-3.87,9.41c-2.15-1.2-4.28-2.08-6.38-2.64-2.11-.56-4.15-.84-6.12-.84-1.76,0-3.18,.19-4.26,.58-1.07,.39-1.85,.88-2.32,1.48-.47,.6-.71,1.25-.71,1.93,0,1.03,.47,1.84,1.42,2.42,.94,.58,2.17,1.05,3.67,1.42,1.5,.37,3.17,.74,5,1.13,1.83,.39,3.64,.87,5.45,1.45s3.47,1.35,5,2.32c1.53,.97,2.76,2.24,3.71,3.8,.94,1.57,1.42,3.54,1.42,5.9,0,2.62-.74,5.04-2.22,7.25-1.48,2.21-3.71,3.99-6.67,5.32-2.97,1.33-6.68,2-11.15,2Z"/><path class="f" d="M350.76,78.27c-6.66,0-11.85-1.83-15.57-5.48-3.72-3.65-5.58-8.81-5.58-15.47v-25.08h12.77v24.69c0,3.83,.75,6.58,2.26,8.25,1.5,1.68,3.59,2.51,6.25,2.51s4.74-.84,6.22-2.51c1.48-1.68,2.22-4.43,2.22-8.25v-24.69h12.64v25.08c0,6.66-1.88,11.82-5.64,15.47-3.76,3.65-8.95,5.48-15.57,5.48Zm-6.12-49.71l8.57-9.74h12.31l-12.25,9.74h-8.64Z"/><path class="f" d="M380.67,77.37V32.24h20.57c4.13,0,7.69,.67,10.7,2,3.01,1.33,5.32,3.26,6.93,5.77,1.61,2.51,2.42,5.47,2.42,8.86s-.81,6.46-2.42,8.93c-1.61,2.47-3.92,4.38-6.93,5.74-3.01,1.35-6.58,2.03-10.7,2.03h-13.54l5.74-5.61v17.41h-12.77Zm12.77-15.92l-5.74-6h12.77c2.66,0,4.66-.57,6-1.71,1.33-1.14,2-2.76,2-4.87s-.67-3.62-2-4.8c-1.33-1.18-3.33-1.77-6-1.77h-12.77l5.74-5.87v25.01Z"/><path class="f" d="M440.11,67.44h23.6v9.93h-36.17V32.24h35.33v9.93h-22.76v25.27Zm-.9-17.73h20.95v9.48h-20.95v-9.48Z"/><path class="f" d="M470.86,77.37V32.24h20.57c4.13,0,7.69,.67,10.7,2,3.01,1.33,5.32,3.26,6.93,5.77,1.61,2.51,2.42,5.47,2.42,8.86s-.81,6.45-2.42,8.9c-1.61,2.45-3.92,4.33-6.93,5.64-3.01,1.31-6.58,1.97-10.7,1.97h-13.54l5.74-5.42v17.41h-12.77Zm12.77-15.92l-5.74-5.93h12.77c2.66,0,4.66-.58,6-1.74,1.33-1.16,2-2.79,2-4.9s-.67-3.62-2-4.8c-1.33-1.18-3.33-1.77-6-1.77h-12.77l5.74-5.87v25.01Zm15.09,15.92l-11.22-16.44h13.6l11.28,16.44h-13.67Z"/></g><g><path class="f" d="M60.58,140.34v-45.13h12.77v45.13h-12.77Z"/><path class="f" d="M82.43,140.34v-45.13h10.51l24.82,30.04h-4.96v-30.04h12.51v45.13h-10.51l-24.89-30.04h4.96v30.04h-12.44Z"/><path class="f" d="M143.94,140.34v-35.01h-13.86v-10.12h40.42v10.12h-13.8v35.01h-12.77Z"/><path class="f" d="M187.9,130.41h23.6v9.93h-36.17v-45.13h35.33v9.93h-22.76v25.27Zm-.9-17.73h20.95v9.48h-20.95v-9.48Z"/><path class="f" d="M218.66,140.34v-45.13h20.57c4.13,0,7.69,.67,10.7,2,3.01,1.33,5.32,3.26,6.93,5.77,1.61,2.51,2.42,5.47,2.42,8.86s-.81,6.45-2.42,8.9c-1.61,2.45-3.92,4.33-6.93,5.64-3.01,1.31-6.58,1.97-10.7,1.97h-13.54l5.74-5.42v17.41h-12.77Zm12.77-15.92l-5.74-5.93h12.77c2.66,0,4.66-.58,6-1.74,1.33-1.16,2-2.79,2-4.9s-.67-3.62-2-4.8c-1.33-1.18-3.33-1.77-6-1.77h-12.77l5.74-5.87v25.01Zm15.09,15.92l-11.22-16.44h13.6l11.28,16.44h-13.67Z"/><path class="f" d="M266.36,140.34v-45.13h10.51l24.82,30.04h-4.96v-30.04h12.51v45.13h-10.51l-24.89-30.04h4.96v30.04h-12.44Z"/><path class="f" d="M330.9,130.41h23.6v9.93h-36.17v-45.13h35.33v9.93h-22.76v25.27Zm-.9-17.73h20.95v9.48h-20.95v-9.48Z"/><path class="f" d="M371.19,140.34v-35.01h-13.86v-10.12h40.42v10.12h-13.8v35.01h-12.77Z"/><path class="f" d="M421.35,140.34v-45.13h21.34c4.94,0,9.3,.92,13.09,2.77,3.78,1.85,6.74,4.45,8.86,7.8,2.13,3.35,3.19,7.33,3.19,11.93s-1.06,8.65-3.19,12.02c-2.13,3.38-5.08,5.99-8.86,7.83-3.78,1.85-8.15,2.77-13.09,2.77h-21.34Zm12.77-10.19h7.93c2.62,0,4.89-.49,6.8-1.48,1.91-.99,3.41-2.42,4.48-4.29,1.07-1.87,1.61-4.07,1.61-6.61s-.54-4.85-1.61-6.67c-1.07-1.83-2.57-3.23-4.48-4.22-1.91-.99-4.18-1.48-6.8-1.48h-7.93v24.76Z"/><path class="f" d="M487.17,130.41h23.6v9.93h-36.17v-45.13h35.33v9.93h-22.76v25.27Zm-.9-17.73h20.95v9.48h-20.95v-9.48Z"/></g></g></svg>