<?xml version="1.0" encoding="UTF-8"?><svg xmlns="http://www.w3.org/2000/svg" viewBox="0 0 139.01 139"><defs><style>.f{fill:#9b9b9b;}.g{fill:#fefefe;}</style></defs><g id="a"/><g id="b"/><g id="c"/><g id="d"/><g id="e"><g><path class="g" d="M68.2,.01c38.35-.65,70.18,29.94,70.8,68.03,.62,38.66-29.91,70.36-68.34,70.95C32.38,139.58,.7,109.07,.01,70.96-.68,32.45,29.86,.66,68.2,.01Z"/><path class="f" d="M30.41,66.2c.28-6.09,2.07-11.76,5.22-16.91,8.17-13.34,20.32-19.7,35.81-19.47,17.47,.25,33.59,14.12,36.77,31.28,.05,.29,.05,.6,.08,.9-.52,1.65,.34,3.19,.39,4.82,.1,3.26-.12,6.44-.68,9.64-.21,1.18-1,2.3-.6,3.58-2.02,7.59-5.99,14.04-12.02,19-12.89,10.63-27.15,12.43-42.47,5.9-1.62-.69-3.09-.87-4.78-.41-5.42,1.46-10.86,2.84-16.29,4.24-1.68,.43-1.82,.32-1.38-1.33,1.41-5.27,2.82-10.55,4.31-15.8,.49-1.74,.38-3.26-.45-4.91-2.3-4.56-3.72-9.39-3.91-14.54,.19-1.99,.22-3.99-.01-5.98Z"/><path class="g" d="M49.05,43.33c3.95-2.91,8.21-5.22,13.06-6.21,13.38-2.74,24.82,.88,33.26,11.61,8.6,10.93,9.82,23.18,3.47,35.67-5.25,10.33-14.02,16.04-25.5,17.6-.49,.07-.98,.18-1.47,.27-1.66,.35-3.32,.47-4.98-.02-3.3-.5-6.56-1.2-9.69-2.39-.61,.22-1.05-.2-1.52-.44-1.57-.82-3.24-1.33-4.96-1.6-1.7-.27-3.22,.66-4.82,1.01-1.73,.38-3.43,.91-5.15,1.35-.32,.08-.66,.3-1,.02-.77-.45-.33-1.08-.19-1.6,.65-2.47,1.32-4.93,2.06-7.37,.57-1.87,.52-3.7-.44-5.38-3.34-5.8-4.8-12.04-4.54-18.7-.54-2.11-.05-4.1,.74-6.05h-.01c1.06-4.44,3.16-8.39,5.83-12.07,1.2-1.65,2.61-3.06,4.08-4.44,.54-.51,1.06-1.02,1.79-1.25Z"/><path class="f" d="M49.66,60.31c.03-3.17,1.25-5.85,3.5-8.05,2.23-2.19,5.59-1.51,6.81,1.33,.77,1.79,1.45,3.63,2.28,5.4,.79,1.66,.49,3.03-.61,4.44-2.47,3.19-2.42,3.21,.01,6.49,2.93,3.95,6.64,6.9,11.15,8.88,1.47,.65,2.56,.48,3.51-.86,.7-.98,1.49-1.88,2.26-2.81,.69-.84,1.51-1.1,2.53-.6,2.34,1.14,4.68,2.28,7.03,3.4,1.06,.5,1.36,1.32,1.31,2.44-.22,4.26-4.03,7.67-8.83,7.72-4.06,.04-7.78-1.29-11.31-3.18-8.03-4.3-13.87-10.75-18.18-18.67-1.01-1.86-1.46-3.9-1.46-5.93Z"/></g></g></svg>